<svg width="60" height="60" viewBox="0 0 60 60" fill="none" xmlns="http://www.w3.org/2000/svg">
<g clip-path="url(#clip0_88_28)">
<path fill-rule="evenodd" clip-rule="evenodd" d="M55.618 52.214C56.052 52.555 56.128 53.184 55.786 53.618C55.589 53.869 55.296 54 54.999 54C54.783 54 54.565 53.931 54.382 53.786L40.382 42.786C39.948 42.445 39.872 41.817 40.214 41.382C40.555 40.949 41.181 40.871 41.618 41.214L55.618 52.214ZM19.786 41.382C20.128 41.817 20.052 42.445 19.618 42.786L5.618 53.786C5.434 53.931 5.217 54 5.001 54C4.704 54 4.411 53.869 4.214 53.618C3.872 53.184 3.948 52.555 4.382 52.214L18.382 41.214C18.818 40.871 19.446 40.949 19.786 41.382ZM55.606 27.795L33.648 44.545C33.485 44.678 31.803 46 30 46C28.206 46 26.537 44.628 26.352 44.472L4.395 27.796C3.955 27.462 3.869 26.835 4.204 26.396C4.538 25.954 5.165 25.87 5.604 26.204L27.604 42.913C27.994 43.238 29.098 44 30 44C30.929 44 32.057 43.258 32.414 42.972L54.393 26.205C54.832 25.867 55.462 25.956 55.795 26.394C56.13 26.833 56.046 27.46 55.606 27.795ZM58 55C58 56.71 56.71 58 55 58H5C3.317 58 2 56.683 2 55V23C2 20.683 2.915 18.81 4.555 17.831L26.561 3.111C26.579 3.1 28.34 2 30 2C31.673 2 33.402 3.06 33.402 3.06L55.476 17.853C57.562 19.133 58 21.359 58 23V55ZM56.556 16.169L34.49 1.381C34.4 1.325 32.262 0 30 0C27.732 0 25.572 1.369 25.466 1.439L3.488 16.141C1.271 17.46 0 19.96 0 23V55C0 57.804 2.196 60 5 60H55C57.804 60 60 57.804 60 55V23C60 19.958 58.765 17.526 56.556 16.169Z" fill="#F2F2F2"/>
</g>
<defs>
<clipPath id="clip0_88_28">
<rect width="60" height="60" fill="white"/>
</clipPath>
</defs>
</svg>
