<svg width="40" height="40" viewBox="0 0 40 40" fill="none" xmlns="http://www.w3.org/2000/svg">
<g clip-path="url(#clip0_82_20)">
<path d="M24.0167 37.2499C24.0167 37.3793 24.0468 37.5069 24.1047 37.6226C24.1625 37.7383 24.2465 37.839 24.35 37.9166C24.4535 37.9942 24.5737 38.0467 24.7009 38.0698C24.8282 38.0929 24.9592 38.0861 25.0833 38.0499C29.424 36.7969 33.1663 34.0188 35.6219 30.2266C38.0775 26.4343 39.0813 21.8829 38.4486 17.4095C37.8158 12.9362 35.5892 8.84167 32.1782 5.87917C28.7672 2.91667 24.4012 1.2854 19.8833 1.2854C15.3655 1.2854 10.9995 2.91667 7.58848 5.87917C4.17748 8.84167 1.95085 12.9362 1.31813 17.4095C0.685413 21.8829 1.68917 26.4343 4.14477 30.2266C6.60037 34.0188 10.3427 36.7969 14.6833 38.0499C14.8075 38.0861 14.9385 38.0929 15.0658 38.0698C15.193 38.0467 15.3132 37.9942 15.4167 37.9166C15.5202 37.839 15.6042 37.7383 15.662 37.6226C15.7199 37.5069 15.75 37.3793 15.75 37.2499V33.3332C14.6068 33.6786 13.3748 33.5742 12.3059 33.0414C11.2371 32.5085 10.4122 31.5875 10 30.4666C9.5341 29.0482 8.76004 27.7505 7.73335 26.6666C12.4833 27.8166 12.5667 30.8999 15.8 29.4499C15.8977 28.3684 16.2582 27.3271 16.85 26.4166C13.1833 25.9999 9.31668 25.4166 9.31668 19.0832C9.28487 17.4467 9.8813 15.8602 10.9833 14.6499C10.4814 13.2262 10.541 11.6646 11.15 10.2832C11.15 10.2832 12.5333 9.83324 15.7 11.9499C18.4267 11.1968 21.3066 11.1968 24.0333 11.9499C27.1833 9.81658 28.5667 10.2832 28.5667 10.2832C29.1757 11.6646 29.2353 13.2262 28.7333 14.6499C29.8369 15.8593 30.4335 17.4464 30.4 19.0832C30.4 25.4332 26.5333 25.9999 22.85 26.3999C23.6388 27.5372 24.0366 28.9002 23.9833 30.2832L24.0167 37.2499Z" stroke="#0F0905" stroke-width="2" stroke-linecap="round" stroke-linejoin="round"/>
</g>
<defs>
<clipPath id="clip0_82_20">
<rect width="40" height="40" fill="white"/>
</clipPath>
</defs>
</svg>
