<svg width="128" height="128" viewBox="0 0 128 128" fill="none" xmlns="http://www.w3.org/2000/svg">
<path d="M64 16C73.3946 16 82.5783 18.7858 90.3896 24.0052C98.2009 29.2246 104.289 36.643 107.884 45.3225C111.479 54.002 112.42 63.5527 110.587 72.7668C108.755 81.9809 104.231 90.4446 97.5876 97.0876C90.9446 103.731 82.4809 108.255 73.2668 110.087C64.0527 111.92 54.502 110.979 45.8226 107.384C37.1431 103.789 29.7246 97.7009 24.5052 89.8896C19.2859 82.0783 16.5 72.8946 16.5 63.5C16.5133 50.9063 21.522 38.8322 30.4271 29.927C39.3322 21.0219 51.4063 16.0132 64 16ZM64 9.5C53.3198 9.5 42.8795 12.667 33.9992 18.6006C25.119 24.5342 18.1977 32.9679 14.1105 42.8351C10.0234 52.7023 8.95402 63.5599 11.0376 74.0349C13.1212 84.5098 18.2642 94.1317 25.8163 101.684C33.3683 109.236 42.9902 114.379 53.4651 116.462C63.9401 118.546 74.7977 117.477 84.6649 113.389C94.5321 109.302 102.966 102.381 108.899 93.5008C114.833 84.6205 118 74.1802 118 63.5C118 49.1783 112.311 35.4432 102.184 25.3162C92.0568 15.1893 78.3217 9.5 64 9.5Z" fill="#F2F2F2"/>
<path d="M65.0799 16C67.1699 16 70.8599 19.66 74.0099 27.69C77.7199 37.15 79.7599 49.87 79.7599 63.5C79.7599 77.13 77.7599 89.85 74.0099 99.31C70.8599 107.31 67.1799 111 65.0799 111C62.9799 111 59.2999 107.34 56.1499 99.31C52.4499 89.85 50.3999 77.13 50.3999 63.5C50.3999 49.87 52.3999 37.15 56.1499 27.69C59.3099 19.65 62.9999 16 65.0799 16ZM65.0799 9.5C53.3799 9.5 43.8999 33.68 43.8999 63.5C43.8999 93.32 53.3799 117.5 65.0799 117.5C76.7799 117.5 86.2599 93.32 86.2599 63.5C86.2599 33.68 76.7799 9.5 65.0799 9.5Z" fill="#F2F2F2"/>
<path d="M17.6599 80.37H112.5" stroke="#F2F2F2" stroke-width="6.5" stroke-miterlimit="10"/>
<path d="M17.6599 46.62H112.5" stroke="#F2F2F2" stroke-width="6.5" stroke-miterlimit="10"/>
</svg>
