<svg width="40" height="40" viewBox="0 0 40 40" fill="none" xmlns="http://www.w3.org/2000/svg">
<path d="M22.3001 17.9834C22.8544 18.5265 23.2948 19.1748 23.5954 19.8903C23.8961 20.6057 24.0509 21.374 24.0509 22.1501C24.0509 22.9261 23.8961 23.6944 23.5954 24.4099C23.2948 25.1253 22.8544 25.7736 22.3001 26.3167L17.5334 31.0001C16.9903 31.5544 16.342 31.9948 15.6265 32.2954C14.9111 32.5961 14.1428 32.7509 13.3667 32.7509C12.5907 32.7509 11.8224 32.5961 11.1069 32.2954C10.3915 31.9948 9.7432 31.5544 9.20007 31.0001C8.64574 30.4569 8.20536 29.8087 7.90472 29.0932C7.60407 28.3777 7.44922 27.6095 7.44922 26.8334C7.44922 26.0573 7.60407 25.2891 7.90472 24.5736C8.20536 23.8581 8.64574 23.2099 9.20007 22.6667L10.6334 21.2334" stroke="#0F0905" stroke-width="2" stroke-linecap="round" stroke-linejoin="round"/>
<path d="M18.3334 22.0168C17.779 21.4737 17.3387 20.8254 17.038 20.1099C16.7374 19.3944 16.5825 18.6262 16.5825 17.8501C16.5825 17.0741 16.7374 16.3058 17.038 15.5903C17.3387 14.8749 17.779 14.2266 18.3334 13.6835L23.0167 9.00012C23.5598 8.44579 24.2081 8.0054 24.9236 7.70476C25.639 7.40412 26.4073 7.24927 27.1834 7.24927C27.9594 7.24927 28.7277 7.40412 29.4432 7.70476C30.1586 8.0054 30.8069 8.44579 31.35 9.00012C31.9044 9.54325 32.3447 10.1915 32.6454 10.907C32.946 11.6225 33.1009 12.3907 33.1009 13.1668C33.1009 13.9428 32.946 14.7111 32.6454 15.4266C32.3447 16.142 31.9044 16.7903 31.35 17.3335L29.9167 18.7668" stroke="#0F0905" stroke-width="2" stroke-linecap="round" stroke-linejoin="round"/>
</svg>
