<svg width="32" height="32" viewBox="0 0 32 32" fill="none" xmlns="http://www.w3.org/2000/svg">
<path d="M6.5 3C5.80777 3 5.13108 3.20527 4.55551 3.58986C3.97993 3.97444 3.53133 4.52107 3.26642 5.16061C3.00152 5.80015 2.9322 6.50388 3.06725 7.18282C3.2023 7.86175 3.53564 8.48539 4.02513 8.97487C4.51461 9.46436 5.13825 9.7977 5.81719 9.93275C6.49612 10.0678 7.19985 9.99849 7.83939 9.73358C8.47894 9.46867 9.02556 9.02007 9.41015 8.4445C9.79473 7.86892 10 7.19223 10 6.5C10 5.57174 9.63125 4.6815 8.97487 4.02513C8.3185 3.36875 7.42826 3 6.5 3ZM6.5 8C6.20333 8 5.91332 7.91203 5.66665 7.7472C5.41997 7.58238 5.22771 7.34811 5.11418 7.07403C5.00065 6.79994 4.97095 6.49834 5.02882 6.20736C5.0867 5.91639 5.22956 5.64912 5.43934 5.43934C5.64912 5.22956 5.91639 5.0867 6.20737 5.02882C6.49834 4.97094 6.79994 5.00065 7.07403 5.11418C7.34812 5.22771 7.58238 5.41997 7.74721 5.66664C7.91203 5.91332 8 6.20333 8 6.5C8 6.89782 7.84197 7.27936 7.56066 7.56066C7.27936 7.84196 6.89783 8 6.5 8Z" fill="#262626"/>
<path d="M9 11H4C3.73478 11 3.48043 11.1054 3.29289 11.2929C3.10536 11.4804 3 11.7348 3 12C3 12.2652 3.10536 12.5196 3.29289 12.7071C3.48043 12.8946 3.73478 13 4 13H8V27H5V16C5 15.7348 4.89464 15.4804 4.70711 15.2929C4.51957 15.1054 4.26522 15 4 15C3.73478 15 3.48043 15.1054 3.29289 15.2929C3.10536 15.4804 3 15.7348 3 16V28C3 28.2652 3.10536 28.5196 3.29289 28.7071C3.48043 28.8946 3.73478 29 4 29H9C9.26522 29 9.51957 28.8946 9.70711 28.7071C9.89464 28.5196 10 28.2652 10 28V12C10 11.7348 9.89464 11.4804 9.70711 11.2929C9.51957 11.1054 9.26522 11 9 11Z" fill="#262626"/>
<path d="M27.34 12.6801C26.7669 12.1223 26.0871 11.686 25.3414 11.3973C24.5956 11.1086 23.7992 10.9735 23 11.0001H22C20.6113 10.9369 19.2309 11.244 18 11.8901C17.9728 11.6443 17.8556 11.4174 17.6709 11.253C17.4862 11.0887 17.2472 10.9986 17 11.0001H12C11.7348 11.0001 11.4804 11.1054 11.2929 11.2929C11.1054 11.4805 11 11.7348 11 12.0001V28C11 28.2653 11.1054 28.5196 11.2929 28.7072C11.4804 28.8947 11.7348 29 12 29H17C17.2652 29 17.5196 28.8947 17.7071 28.7072C17.8946 28.5196 18 28.2653 18 28V19.0001C18 18.4696 18.2107 17.9609 18.5858 17.5858C18.9609 17.2108 19.4696 17.0001 20 17.0001C20.5304 17.0001 21.0391 17.2108 21.4142 17.5858C21.7893 17.9609 22 18.4696 22 19.0001V28C22 28.2653 22.1054 28.5196 22.2929 28.7072C22.4804 28.8947 22.7348 29 23 29H28C28.2652 29 28.5196 28.8947 28.7071 28.7072C28.8946 28.5196 29 28.2653 29 28V17.0001C29.0288 16.2053 28.8965 15.4129 28.6113 14.6705C28.326 13.9281 27.8936 13.2511 27.34 12.6801ZM27 27H24V19.0001C24 17.9392 23.5786 16.9218 22.8284 16.1716C22.0783 15.4215 21.0609 15.0001 20 15.0001C18.9391 15.0001 17.9217 15.4215 17.1716 16.1716C16.4214 16.9218 16 17.9392 16 19.0001V27H13V13.0001H16V14.0001C16.001 14.1975 16.0604 14.3902 16.1707 14.5539C16.2811 14.7176 16.4374 14.845 16.62 14.9201C16.8021 14.9966 17.0028 15.0176 17.1968 14.9802C17.3908 14.9428 17.5694 14.8488 17.71 14.7101C18.66 13.7101 19.41 13.0001 22 13.0001H23C23.5349 12.9771 24.069 13.0617 24.5705 13.2489C25.0721 13.4362 25.531 13.7222 25.92 14.0901C26.2848 14.4787 26.5683 14.9363 26.7538 15.436C26.9392 15.9358 27.023 16.4675 27 17.0001V27Z" fill="#262626"/>
</svg>
