<svg width="134" height="134" viewBox="0 0 134 134" fill="none" xmlns="http://www.w3.org/2000/svg">
<path fill-rule="evenodd" clip-rule="evenodd" d="M62.5 112.5V125C62.5 127.3 64.367 129.167 66.667 129.167C68.966 129.167 70.833 127.3 70.833 125V112.5C70.833 110.2 68.966 108.333 66.667 108.333C64.367 108.333 62.5 110.2 62.5 112.5ZM110.861 104.968L102.022 96.129C100.396 94.503 97.756 94.503 96.129 96.129C94.503 97.756 94.503 100.396 96.129 102.022L104.968 110.861C106.594 112.487 109.235 112.487 110.861 110.861C112.487 109.235 112.487 106.594 110.861 104.968ZM31.311 96.129L22.472 104.968C20.846 106.594 20.846 109.235 22.472 110.861C24.099 112.487 26.739 112.487 28.365 110.861L37.204 102.022C38.83 100.396 38.83 97.756 37.204 96.129C35.578 94.503 32.937 94.503 31.311 96.129ZM66.667 33.333C48.269 33.333 33.333 48.269 33.333 66.667C33.333 85.064 48.269 100 66.667 100C85.064 100 100 85.064 100 66.667C100 48.269 85.064 33.333 66.667 33.333ZM66.667 41.667C80.465 41.667 91.667 52.869 91.667 66.667C91.667 80.465 80.465 91.667 66.667 91.667C52.869 91.667 41.667 80.465 41.667 66.667C41.667 52.869 52.869 41.667 66.667 41.667ZM125 62.5H112.5C110.2 62.5 108.333 64.367 108.333 66.667C108.333 68.966 110.2 70.833 112.5 70.833H125C127.3 70.833 129.167 68.966 129.167 66.667C129.167 64.367 127.3 62.5 125 62.5ZM20.833 62.5H8.33299C6.03399 62.5 4.16699 64.367 4.16699 66.667C4.16699 68.966 6.03399 70.833 8.33299 70.833H20.833C23.133 70.833 25 68.966 25 66.667C25 64.367 23.133 62.5 20.833 62.5ZM104.968 22.472L96.129 31.311C94.503 32.937 94.503 35.578 96.129 37.204C97.756 38.83 100.396 38.83 102.022 37.204L110.861 28.365C112.487 26.739 112.487 24.099 110.861 22.472C109.235 20.846 106.594 20.846 104.968 22.472ZM37.204 31.311L28.365 22.472C26.739 20.846 24.099 20.846 22.472 22.472C20.846 24.099 20.846 26.739 22.472 28.365L31.311 37.204C32.937 38.83 35.578 38.83 37.204 37.204C38.83 35.578 38.83 32.937 37.204 31.311ZM62.5 8.33299V20.833C62.5 23.133 64.367 25 66.667 25C68.966 25 70.833 23.133 70.833 20.833V8.33299C70.833 6.03399 68.966 4.16699 66.667 4.16699C64.367 4.16699 62.5 6.03399 62.5 8.33299Z" fill="#F2F2F2"/>
</svg>
